PathFileType	4	(X/Y/Z)	D:\Share\Shared_Data\Ergonomics\Sit To Stand Pertubation\S1\Perturbed_NoHarness.trc
DataRate	CameraRate	NumFrames	NumMarkers	Units	OrigDataRate	OrigDataStartFrame	OrigNumFrames	
100	100	9	18	m	100	5161	231
Frame#	Time	L_ASIS			R_ASIS			R_Pelvis			V_Sacral			L_Pelvis			Clavical			R_Acromium			L_Acromium			Sternum			Torso			R_Thigh_Med			R_Thigh_Lat			R_Thigh			R_Shank_Med			R_Shank_Lat			R_Shank			R_Heel			R_Toe			
		X1	Y1	Z1	X2	Y2	Z2	X3	Y3	Z3	X4	Y4	Z4	X5	Y5	Z5	X6	Y6	Z6	X7	Y7	Z7	X8	Y8	Z8	X9	Y9	Z9	X10	Y10	Z10	X11	Y11	Z11	X12	Y12	Z12	X13	Y13	Z13	X14	Y14	Z14	X15	Y15	Z15	X16	Y16	Z16	X17	Y17	Z17	X18	Y18	Z18	

5161	51.6	0.0096577072	0.64561096	-0.098189819	0.010946718	0.63666876	0.11172645	-0.074731407	0.63628363	0.13992709	-0.17456155	0.57660645	0.010296075	-0.070621971	0.63017566	-0.12643531	0.031371511	0.96587823	-0.0024965255	-0.029059166	1.0396439	0.14301932	-0.070030663	0.99542206	-0.20022852	0.017396811	0.98134875	0.097826698	0.027368546	0.97059595	-0.061078838	0.29943277	0.41410614	0.039435932	0.29528418	0.4379903	0.15992775	0.16438223	0.55159937	0.10868715	0.32924512	0.0965103	0.10402129	0.30493579	0.10035817	0.18206863	0.29748428	0.31334952	0.18439381	0.26328568	0.033143879	0.12815219	0.46764661	0.052614445	0.1425363
5162	51.61	0.012117444	0.64602734	-0.096791801	0.010940787	0.63667249	0.11172112	-0.074738625	0.63628448	0.1399258	-0.17458186	0.57659058	0.010294501	-0.07066143	0.63024066	-0.12644028	0.031319321	0.96585748	-0.0025152977	-0.029071058	1.0396339	0.14301729	-0.070137932	0.99540222	-0.20021335	0.017374802	0.9813363	0.097804962	0.027296009	0.97057526	-0.061094124	0.29943063	0.41410922	0.039427765	0.29527975	0.43799231	0.15991913	0.16438416	0.55159766	0.10869627	0.32931522	0.096531624	0.10403001	0.3049288	0.10036533	0.18208052	0.29747299	0.31335248	0.18439369	0.26328589	0.033145737	0.12815398	0.46765079	0.052603985	0.14253326
5163	51.62	0.014489539	0.64642963	-0.095448914	0.010934703	0.6366748	0.11171761	-0.074745972	0.63628455	0.13992586	-0.17460092	0.57657532	0.010293791	-0.070698166	0.6303017	-0.126444	0.031270247	0.9658374	-0.0025294135	-0.029084572	1.0396226	0.14301883	-0.070235268	0.99538568	-0.20019743	0.017352304	0.98132281	0.097787636	0.027229183	0.97055524	-0.061105621	0.29942734	0.4141124	0.039424259	0.29527359	0.43799469	0.15991382	0.1643847	0.55159552	0.1087091	0.32939691	0.096556564	0.10403883	0.30492078	0.10037215	0.18209306	0.29745956	0.31335425	0.18439789	0.26328583	0.033147568	0.12815588	0.467655	0.052594395	0.14253117
5164	51.63	0.01666979	0.64679956	-0.094220207	0.010928538	0.63667572	0.11171597	-0.074753288	0.63628363	0.13992728	-0.17461813	0.57656104	0.010294012	-0.070730682	0.63035522	-0.12644602	0.031225513	0.96581812	-0.0025385296	-0.029099255	1.0396095	0.1430242	-0.070320709	0.99537292	-0.20018089	0.017330027	0.98130792	0.097775101	0.027169559	0.97053571	-0.061112915	0.29942279	0.41411545	0.039425617	0.29526584	0.43799731	0.15991209	0.16438391	0.55159259	0.1087258	0.32948819	0.096584503	0.10404784	0.30491162	0.10037853	0.18210611	0.29744412	0.31335474	0.1844066	0.26328552	0.033149307	0.12815785	0.46765924	0.052585854	0.14253012
5165	51.64	0.018581684	0.64712384	-0.093148598	0.010922364	0.63667487	0.11171611	-0.074760384	0.6362818	0.13993002	-0.17463297	0.57654803	0.010295208	-0.070757599	0.63039783	-0.12644574	0.031186327	0.96579962	-0.002542371	-0.029114481	1.0395948	0.14303366	-0.070392555	0.9953642	-0.20016385	0.017308802	0.98129144	0.097767754	0.027118555	0.97051697	-0.061115662	0.29941711	0.41411835	0.039431831	0.29525662	0.43800006	0.15991405	0.16438193	0.55158887	0.10874641	0.32958624	0.096614555	0.10405711	0.30490143	0.10038446	0.18211945	0.29742679	0.31335373	0.18441971	0.26328488	0.033150902	0.12815984	0.46766345	0.052578529	0.14253018
5166	51.65	0.020178823	0.64739404	-0.092259529	0.010916247	0.63667249	0.11171791	-0.074767044	0.63627887	0.13993399	-0.17464487	0.5765368	0.010297396	-0.070777626	0.63042639	-0.12644238	0.031153856	0.96578192	-0.0025407269	-0.02912948	1.0395785	0.14304732	-0.070449387	0.9953595	-0.2001463	0.017289574	0.98127332	0.0977659	0.027077471	0.97049908	-0.061113613	0.29941037	0.41412094	0.039442673	0.29524606	0.43800275	0.15991954	0.16437889	0.55158429	0.10877081	0.32968738	0.096645645	0.10406679	0.30489026	0.10038985	0.18213289	0.29740787	0.31335123	0.184437	0.26328406	0.033152283	0.12816185	0.46766779	0.052572498	0.14253139
5167	51.66	0.021443834	0.64760693	-0.091561684	0.010910263	0.63666864	0.11172112	-0.074773048	0.63627484	0.13993901	-0.17465335	0.57652759	0.010300552	-0.070789742	0.63043854	-0.12643494	0.031129213	0.96576501	-0.0025334547	-0.029143341	1.0395602	0.14306529	-0.070490074	0.99535913	-0.20012817	0.017273375	0.9812533	0.097769753	0.027047466	0.97048224	-0.061106606	0.29940286	0.41412317	0.039457729	0.2952345	0.43800525	0.15992839	0.16437511	0.55157867	0.10879865	0.32978754	0.09667659	0.10407704	0.3048782	0.10039469	0.18214627	0.29738766	0.31334726	0.18445804	0.26328305	0.03315337	0.12816379	0.46767209	0.052567783	0.14253365
5168	51.67	0.022384598	0.64776361	-0.091049332	0.01090451	0.63666333	0.11172545	-0.074778175	0.6362699	0.13994495	-0.17465802	0.57652094	0.010304617	-0.070793213	0.63043268	-0.12642236	0.031113411	0.9657486	-0.0025204787	-0.02915502	1.0395404	0.14308754	-0.070513824	0.99536292	-0.20010927	0.017261301	0.98123181	0.097779488	0.027029531	0.97046643	-0.061094578	0.29939487	0.41412506	0.039476437	0.29522223	0.43800739	0.15994025	0.16437093	0.55157202	0.10882948	0.32988217	0.0967062	0.10408799	0.30486542	0.10039897	0.18215936	0.29736661	0.31334189	0.18448225	0.26328189	0.033154099	0.12816565	0.46767633	0.052564297	0.14253693
5169	51.68	0.023028694	0.64786859	-0.090705505	0.010899099	0.63665662	0.11173053	-0.074782204	0.63626404	0.13995155	-0.17465866	0.57651685	0.01030948	-0.070787682	0.63040808	-0.12640342	0.031107344	0.9657323	-0.002501797	-0.02916337	1.0395192	0.143114	-0.070520096	0.99537103	-0.20008936	0.017254482	0.98120874	0.097795242	0.027024464	0.97045178	-0.061077572	0.29938675	0.41412656	0.039498093	0.29520959	0.43800903	0.15995457	0.1643667	0.55156439	0.10886272	0.32996698	0.096733307	0.10409982	0.30485208	0.10040268	0.18217201	0.29734518	0.31333524	0.18450891	0.26328061	0.033154404	0.1281674	0.46768057	0.052561886	0.14254106
